<?xml version="1.0" encoding="UTF-8" standalone="no"?>
<!-- Created with Inkscape (http://www.inkscape.org/) -->

<svg
   width="3.2679999in"
   height="2.6930001in"
   viewBox="0 0 83.007195 68.402198"
   version="1.1"
   id="svg1"
   xml:space="preserve"
   sodipodi:docname="drawing-3.svg"
   inkscape:version="1.3.2 (091e20e, 2023-11-25, custom)"
   xmlns:inkscape="http://www.inkscape.org/namespaces/inkscape"
   xmlns:sodipodi="http://sodipodi.sourceforge.net/DTD/sodipodi-0.dtd"
   xmlns="http://www.w3.org/2000/svg"
   xmlns:svg="http://www.w3.org/2000/svg"><sodipodi:namedview
     id="namedview1"
     pagecolor="#ffffff"
     bordercolor="#000000"
     borderopacity="0.25"
     inkscape:showpageshadow="2"
     inkscape:pageopacity="0.0"
     inkscape:pagecheckerboard="0"
     inkscape:deskcolor="#d1d1d1"
     inkscape:document-units="mm"
     inkscape:zoom="1.1575153"
     inkscape:cx="396.97098"
     inkscape:cy="284.66145"
     inkscape:window-width="1920"
     inkscape:window-height="1009"
     inkscape:window-x="1912"
     inkscape:window-y="96"
     inkscape:window-maximized="1"
     inkscape:current-layer="svg1" /><defs
     id="defs1"><clipPath
       clipPathUnits="userSpaceOnUse"
       id="clipPath3"><ellipse
         style="opacity:0.554745;fill:#8d5fd3;stroke-width:0.204439"
         id="ellipse3"
         cx="89.579033"
         cy="73.871651"
         rx="44.914745"
         ry="41.255909" /></clipPath></defs><g
     id="layer1"
     transform="matrix(0.60417042,0,0,0.63450193,-23.839932,-17.33365)"
     clip-path="url(#clipPath3)"><path
       style="fill:#000000;stroke-width:1.09306"
       d="M 25.812657,73.428042 V 23.735539 H 88.771203 151.72976 V 73.428042 123.12054 H 88.771203 25.812657 Z m 68.804016,35.229298 c 8.485777,-1.12846 15.996817,-5.32851 21.427557,-11.981938 4.22396,-5.17495 6.95883,-11.46928 7.89549,-18.17152 0.98179,-7.02518 -0.0202,-13.92501 -2.96324,-20.404882 -2.18491,-4.810681 -5.72971,-9.306332 -9.94282,-12.609866 -4.36781,-3.424819 -9.84544,-5.718019 -15.506627,-6.491783 -1.61906,-0.221295 -5.5608,-0.250081 -7.18704,-0.05253 -5.59064,0.67926 -10.86743,2.715277 -15.33238,5.915882 -2.47148,1.771631 -5.58692,4.795197 -7.3644,7.147245 -3.88315,5.138352 -6.34524,11.249864 -7.21838,17.917734 -0.23676,1.80799 -0.23721,6.83766 -7.8e-4,8.61783 0.38269,2.88148 0.88252,5.05235 1.74435,7.57608 0.7207,2.11047 1.07074,2.85269 1.46018,3.09609 0.18432,0.11522 0.35158,0.19205 0.37169,0.17075 0.0201,-0.0213 -0.21826,-0.6056 -0.52971,-1.29846 -1.05776,-2.35318 -1.86276,-4.9462 -2.40399,-7.74354 -0.71087,-3.67417 -0.74681,-8.50385 -0.0919,-12.35664 0.96532,-5.67921 3.27945,-11.004898 6.8371,-15.734751 0.88063,-1.170777 3.81885,-4.208516 5.03976,-5.210447 4.71,-3.865218 9.67814,-6.105264 15.66777,-7.064304 1.9314,-0.309258 5.32754,-0.384018 7.40505,-0.16302 7.498767,0.797682 14.412877,4.311785 19.517357,9.919729 4.74336,5.211206 7.66266,11.646513 8.63171,19.027763 0.21078,1.60545 0.28815,5.27755 0.1475,7.00014 -0.55353,6.7794 -2.99048,13.33214 -6.8767,18.49077 -3.25849,4.32538 -7.29039,7.693268 -11.86348,9.909718 -6.828597,3.30961 -13.969877,4.05831 -21.093737,2.21149 -5.10623,-1.32376 -10.14465,-4.19116 -13.82597,-7.868458 -0.62422,-0.62353 -3.75716,-4.43204 -4.27141,-5.19246 -0.4932,-0.72929 -2.13607,-1.68929 -3.53924,-2.06813 -0.94529,-0.25521 -2.49931,-0.2762 -3.3411,-0.0452 -2.49133,0.68391 -3.942531,3.10821 -3.534839,5.90515 0.240636,1.65087 1.289819,3.241098 2.535729,3.843378 1.4278,0.69019 3.37604,0.27926 4.2176,-0.88959 0.55541,-0.771408 0.56631,-1.941318 0.0296,-3.183118 l -0.24711,-0.57183 -0.47558,0.49592 c -0.26156,0.27275 -0.72601,0.63024 -1.03212,0.79443 -0.48603,0.2607 -0.65977,0.29852 -1.37109,0.29852 -0.71506,0 -0.86901,-0.0339 -1.26065,-0.27782 -1.984905,-1.23612 -1.61478,-4.22618 0.65969,-5.32928 1.70012,-0.82456 4.55716,0.31839 6.86508,2.74637 0.60192,0.63322 1.12151,1.3611 2.18821,3.06539 2.20519,3.523258 3.63258,5.081118 6.0547,6.608108 1.86111,1.17332 3.39172,1.66767 5.37715,1.7367 1.23638,0.0429 1.41166,0.0741 2.23534,0.39757 2.48794,0.97685 5.94008,1.75636 8.88063,2.00527 1.00914,0.0855 4.94086,-0.0365 6.08503,-0.18857 z M 72.354763,83.630482 c 0.2249,-1.50503 0.11765,-3.02887 -0.26955,-3.82985 -0.27077,-0.56013 -0.46573,-0.73685 -0.9365,-0.84891 -0.70583,-0.16801 -1.73544,0.35454 -2.0487,1.03976 -0.31422,0.68732 0.30848,0.82294 0.64356,0.14016 0.21842,-0.44506 0.73358,-0.86638 1.05933,-0.86638 0.37909,0 0.79008,0.70954 0.88074,1.5205 l 0.0552,0.49442 -0.37184,-0.0899 c -0.54526,-0.13175 -1.07143,0.0518 -1.49303,0.52085 -0.51928,0.5777 -0.6675,1.23654 -0.41959,1.86508 0.24175,0.61293 1.08199,0.84794 1.83693,0.51377 0.31114,-0.13772 0.33659,-0.13571 0.32129,0.0253 -0.0296,0.31124 5.9e-4,0.34058 0.31688,0.30827 0.30928,-0.0316 0.31222,-0.0371 0.42521,-0.79318 z m -2.17829,0.0454 c -0.30656,-0.39132 0.0152,-1.74501 0.4888,-2.0565 0.446,-0.29335 1.04868,0.18477 1.04868,0.83193 0,0.40557 -0.27949,1.0488 -0.53181,1.22394 -0.29305,0.20341 -0.84653,0.20375 -1.00567,6.3e-4 z m 34.217337,-0.11666 c 0.0681,-0.50879 0.0975,-1.34874 0.0693,-1.98063 -0.0423,-0.94526 -0.0871,-1.17723 -0.32409,-1.67532 -0.15124,-0.31798 -0.39334,-0.66885 -0.53799,-0.77972 -0.31919,-0.24468 -1.0107,-0.25504 -1.52331,-0.0228 -0.87567,0.39668 -1.39453,1.4843 -0.7081,1.4843 0.17165,0 0.27419,-0.10681 0.43027,-0.44842 0.21498,-0.47045 0.48363,-0.71512 0.90953,-0.82837 0.46224,-0.1229 0.85737,0.50396 1.04882,1.66393 0.0515,0.31212 0.04,0.33114 -0.15892,0.26385 -0.11794,-0.0399 -0.39784,-0.0697 -0.62198,-0.0664 -1.49703,0.0226 -2.26042,2.50473 -0.91502,2.97512 0.33459,0.11697 1.0689,0.0875 1.39444,-0.0559 0.12872,-0.0567 0.1677,-0.0242 0.1677,0.13999 0,0.17553 0.0584,0.21389 0.32549,0.21389 h 0.3255 z m -2.20341,0.078 c -0.25879,-0.51226 0.0379,-1.65835 0.51495,-1.98952 0.85033,-0.59024 1.40476,1.0779 0.63077,1.89784 -0.3398,0.35998 -0.98413,0.41153 -1.14572,0.0917 z m -12.439677,0.51768 c -0.0146,-0.0746 -0.0534,-0.63044 -0.086,-1.23538 l -0.0593,-1.09988 0.27773,-0.0336 c 0.38413,-0.0465 0.39553,-0.42528 0.0142,-0.47176 -0.24575,-0.0299 -0.26349,-0.0642 -0.26299,-0.50758 5.9e-4,-0.51842 0.15272,-1.21181 0.31105,-1.41756 0.0792,-0.10296 0.13766,-0.0871 0.28125,0.0761 0.20706,0.23545 0.65292,0.27988 0.65292,0.0651 0,-0.0775 -0.0795,-0.24507 -0.17672,-0.37222 -0.13959,-0.18263 -0.27361,-0.23121 -0.63788,-0.23121 -0.39288,0 -0.49972,0.0457 -0.72174,0.30898 -0.24485,0.29031 -0.47603,1.18028 -0.47603,1.83259 0,0.14364 -0.0702,0.22361 -0.21561,0.24548 -0.28272,0.0425 -0.29806,0.42602 -0.0188,0.46835 0.17641,0.0267 0.20898,0.14513 0.31328,1.13882 0.064,0.60994 0.14264,1.18142 0.17471,1.26997 0.0738,0.20385 0.67055,0.16956 0.63006,-0.0362 z m 6.34505,0.0303 c 0.17627,-0.0887 0.41012,-0.34068 0.54154,-0.58372 0.22387,-0.41402 0.2313,-0.49468 0.2313,-2.50881 v -2.08103 l -0.43122,-0.0828 c -1.07287,-0.20592 -1.31604,-0.19935 -1.72933,0.0467 -0.56007,0.33346 -0.88659,0.95748 -0.89627,1.71283 -0.009,0.6389 0.13371,0.90287 0.6322,1.17595 0.3318,0.18178 1.01415,0.17641 1.3226,-0.01 0.13178,-0.0798 0.27191,-0.1467 0.31145,-0.14867 0.1328,-0.007 0.0734,1.30787 -0.077,1.70634 -0.24983,0.66146 -0.75855,0.72869 -1.25137,0.16537 -0.23299,-0.26634 -0.7079,-0.34533 -0.7079,-0.11776 0,0.17569 0.4641,0.64069 0.76662,0.76811 0.36051,0.15184 0.9392,0.13289 1.28744,-0.0422 z m -1.33376,-2.72636 c -0.68049,-0.72089 0.28542,-2.93377 0.98699,-2.26118 0.48169,0.46181 0.45697,1.45056 -0.0516,2.06542 -0.37701,0.45578 -0.63829,0.51046 -0.93535,0.19576 z m -26.19395,2.61278 c 0.0964,-0.0924 0.17524,-0.20172 0.17524,-0.24292 0,-0.14364 -0.30279,-0.19663 -0.49636,-0.0869 -0.12976,0.0736 -0.22702,0.0767 -0.29065,0.009 -0.13763,-0.14581 -0.26629,-1.50046 -0.20135,-2.12015 0.0546,-0.52046 0.06,-0.52804 0.40204,-0.55833 0.2732,-0.0242 0.34675,-0.0738 0.34675,-0.23375 0,-0.16134 -0.0738,-0.20951 -0.35935,-0.23455 l -0.35936,-0.0315 v -0.86319 -0.86321 l -0.31143,0.0318 c -0.28971,0.0296 -0.31312,0.0601 -0.33543,0.43788 -0.0132,0.22333 -0.0477,0.5975 -0.0769,0.83147 -0.0485,0.39037 -0.0781,0.42801 -0.35933,0.45683 -0.23264,0.0239 -0.30641,0.0803 -0.30641,0.23445 0,0.15486 0.0739,0.21058 0.31143,0.23485 l 0.31144,0.0318 0.002,0.88185 c 0.004,1.63381 0.27594,2.25231 0.98904,2.25231 0.22193,0 0.45673,-0.0707 0.55826,-0.16801 z m 9.57262,0.0629 c 0.20359,-0.11543 0.24492,-0.35151 0.0804,-0.45923 -0.0577,-0.0378 -0.2086,-0.01 -0.33525,0.0619 -0.12666,0.0718 -0.25569,0.10363 -0.28673,0.0708 -0.12897,-0.13663 -0.2269,-0.89606 -0.22904,-1.77628 l -0.002,-0.93903 h 0.3833 c 0.34498,0 0.38331,-0.0253 0.38331,-0.25379 0,-0.22559 -0.0399,-0.25379 -0.35935,-0.25378 l -0.35935,2e-5 0.0337,-0.8629 0.0337,-0.86292 h -0.33406 c -0.3948,0 -0.44894,0.1303 -0.45092,1.08518 l -10e-4,0.62835 -0.35935,0.0315 c -0.28556,0.025 -0.35936,0.0732 -0.35936,0.23454 0,0.16133 0.0738,0.2095 0.35936,0.23454 l 0.35935,0.0315 v 1.06305 c 0,1.10566 0.13658,1.69245 0.45266,1.94482 0.19279,0.15393 0.73689,0.16591 0.99105,0.0218 z m -3.00837,-0.19318 c 0.54818,-0.26367 0.74393,-0.60279 0.66185,-1.14654 -0.0899,-0.59586 -0.43161,-1.02043 -1.20747,-1.50047 -0.70356,-0.4353 -0.84386,-0.66525 -0.72137,-1.18229 0.0739,-0.31206 0.639,-0.94827 0.84223,-0.94827 0.1716,0 0.36035,0.42213 0.36035,0.80591 0,0.22788 0.0537,0.30303 0.25453,0.35643 0.41349,0.1099 0.54663,-0.11502 0.4095,-0.69195 -0.1565,-0.6584 -0.47358,-0.91078 -1.06893,-0.85083 -0.90208,0.0909 -1.70007,0.99314 -1.56299,1.76727 0.0625,0.35275 0.29277,0.57186 1.2099,1.15109 0.66079,0.41734 0.89872,1.01592 0.66388,1.67024 -0.11358,0.31647 -0.51216,0.50533 -0.76453,0.36225 -0.18908,-0.10726 -0.38711,-0.60336 -0.38711,-0.96988 0,-0.1449 -0.0726,-0.24689 -0.2009,-0.28245 -0.49188,-0.13627 -0.68883,0.30668 -0.40755,0.91662 0.32051,0.69503 1.12752,0.92337 1.91861,0.54287 z m 5.73941,0.007 c 0.33889,-0.21893 0.92848,-0.968 0.83765,-1.06423 -0.0337,-0.0357 -0.17794,-0.065 -0.32049,-0.065 -0.18874,0 -0.32108,0.0964 -0.48711,0.35484 -0.2961,0.46089 -0.77171,0.71233 -1.0495,0.55484 -0.26638,-0.15103 -0.47214,-0.69596 -0.47214,-1.25044 0,-0.43721 0.009,-0.4506 0.3549,-0.51932 1.1537,-0.22928 2.02711,-1.35885 1.76562,-2.28343 -0.14412,-0.50959 -0.3942,-0.72543 -0.84819,-0.73207 -0.6966,-0.01 -1.15847,0.39408 -1.54395,1.35137 -0.61634,1.53058 -0.53049,3.14599 0.19584,3.68494 0.3058,0.22691 1.19501,0.20902 1.56737,-0.0315 z m -1.35392,-2.70406 c 0.0909,-0.51372 0.56852,-1.59061 0.80393,-1.81289 0.61257,-0.57837 0.7735,0.76009 0.18737,1.55824 -0.23753,0.32342 -0.64838,0.60979 -0.87611,0.61064 -0.15213,5.7e-4 -0.16907,-0.0518 -0.11519,-0.35599 z m 18.9679,2.57735 c 0.033,-0.17449 0.0599,-0.89966 0.0599,-1.61151 0,-1.40827 0.10796,-1.91425 0.53531,-2.50773 0.13424,-0.18645 0.35423,-0.41546 0.48888,-0.50892 0.23181,-0.16091 0.25194,-0.15958 0.37925,0.0249 0.0984,0.14253 0.117647,0.35207 0.0718,0.78111 l -0.0626,0.58633 h 0.294207 c 0.35963,0 0.40211,-0.0673 0.46676,-0.73861 0.0451,-0.46885 0.0226,-0.56273 -0.19426,-0.80953 -0.41909,-0.47689 -1.300027,-0.31696 -1.955407,0.35499 l -0.31144,0.31933 v -0.26128 c 0,-0.3442 -0.20603,-0.5147 -0.52081,-0.431 -0.17474,0.0465 -0.23718,0.11761 -0.20431,0.23278 0.15803,0.55355 0.25873,1.79992 0.2615,3.23676 l 0.003,1.64964 h 0.31407 c 0.2751,0 0.32151,-0.0393 0.37397,-0.31723 z m 9.030327,0.15283 c 0.39454,-0.19833 0.82424,-0.71394 0.78374,-0.94044 -0.0165,-0.0921 -0.1423,-0.17797 -0.28657,-0.19568 -0.20067,-0.0247 -0.28787,0.0313 -0.39663,0.25403 -0.20448,0.4189 -0.47474,0.64157 -0.85881,0.7076 -0.27844,0.0479 -0.38383,0.0123 -0.58019,-0.19571 -0.59714,-0.63259 -0.51988,-2.0438 0.19466,-3.55529 0.34741,-0.73493 0.88057,-0.89653 1.08437,-0.32869 0.064,0.1785 0.1638,0.25639 0.3283,0.25639 0.31382,0 0.38123,-0.14259 0.22777,-0.48179 -0.19582,-0.43281 -0.73487,-0.58097 -1.38518,-0.3807 -0.4134,0.12732 -0.56091,0.23526 -0.76249,0.55796 -0.36935,0.59126 -0.71552,1.68662 -0.76997,2.43639 -0.0404,0.55519 -0.0126,0.73219 0.17506,1.11587 0.30971,0.63337 0.739,0.91446 1.39656,0.91446 0.28729,0 0.66951,-0.074 0.84938,-0.1644 z m 3.42095,-0.025 c 0.32757,-0.22881 0.82355,-0.82922 0.82889,-1.00344 0.002,-0.0726 -0.1122,-0.12689 -0.26755,-0.12689 -0.20215,0 -0.35129,0.10527 -0.58422,0.4123 -0.52769,0.69564 -1.01098,0.74624 -1.28626,0.13468 -0.0869,-0.19296 -0.15793,-0.57262 -0.15793,-0.84368 0,-0.48804 0.003,-0.49353 0.3549,-0.56338 1.16675,-0.23188 1.99684,-1.32881 1.74759,-2.3094 -0.18628,-0.73285 -1.03788,-0.95305 -1.67984,-0.43434 -0.61274,0.49512 -1.13224,1.91597 -1.13204,3.09623 1.4e-4,0.84086 0.14955,1.2594 0.57666,1.61531 0.338,0.28165 1.21126,0.29399 1.5998,0.0226 z m -1.46707,-2.27799 c 0,-0.0185 0.0695,-0.28182 0.15451,-0.58508 0.21066,-0.75174 0.66372,-1.67914 0.85912,-1.75857 0.60493,-0.24592 0.54994,1.23398 -0.0683,1.83681 -0.20207,0.19703 -0.94536,0.59555 -0.94536,0.50684 z m -22.584977,2.25166 c 0.71691,-0.39117 0.93886,-0.91929 0.99973,-2.37881 0.0411,-0.9852 0.0232,-1.1715 -0.14601,-1.52275 -0.25108,-0.52121 -0.50358,-0.75471 -0.92489,-0.85537 -1.11767,-0.26704 -1.76922,0.56519 -1.93068,2.4661 -0.082,0.96516 0.0658,1.52679 0.53211,2.02066 0.31659,0.33539 0.42002,0.38437 0.81162,0.38437 0.24684,0 0.54299,-0.0514 0.65812,-0.1142 z m -0.82084,-0.3 c -0.32549,-0.20084 -0.45523,-0.65394 -0.45404,-1.58572 0.002,-1.47616 0.33973,-2.46824 0.83956,-2.46527 0.3405,0.002 0.43934,0.0788 0.64283,0.49933 0.13942,0.28812 0.16124,0.53477 0.12575,1.42125 -0.0503,1.25654 -0.28429,1.97154 -0.69994,2.13895 -0.29506,0.11884 -0.24622,0.11976 -0.45416,-0.009 z m 6.54021,-11.36175 c 0.35138,-0.40322 0.35886,-0.40608 1.06334,-0.4069 1.7383,-0.002 3.6322,-0.37288 3.6322,-0.7112 0,-0.1174 -0.66633,-0.37629 -1.17748,-0.45749 -0.36631,-0.0581 -0.45159,-0.0432 -0.45159,0.0794 0,0.0876 0.12424,0.17743 0.29572,0.21376 0.41716,0.0884 0.30764,0.28913 -0.25519,0.46775 -0.69818,0.22159 -12.31438,0.22067 -13.01775,-0.001 -0.62353,-0.19653 -0.65995,-0.36608 -0.11014,-0.51274 0.60951,-0.16259 0.59184,-0.39275 -0.0223,-0.28991 -1.08928,0.18242 -1.61425,0.44776 -1.33752,0.67605 0.25849,0.21324 2.40886,0.53624 3.56999,0.53624 0.64638,0 0.69477,0.0173 1.13892,0.40608 l 0.46386,0.40606 h 2.92701 2.92702 z m -1.90179,-1.24724 c 0.63293,-0.33981 0.77887,-0.3779 1.44661,-0.3775 0.43151,2.7e-4 0.74266,-0.0421 0.74266,-0.10109 0,-0.0573 -0.27151,-0.10152 -0.62288,-0.10152 -0.34259,0 -0.62259,-0.0343 -0.62224,-0.0761 3.4e-4,-0.0418 0.0884,-0.21319 0.19575,-0.38069 0.25674,-0.40072 0.4744,-0.94205 0.4744,-1.17984 0,-0.18297 -0.13866,-0.19064 -3.44978,-0.19064 -3.03472,0 -3.44977,0.0187 -3.44977,0.15554 0,0.24216 0.26912,0.86573 0.53001,1.22809 0.13013,0.18074 0.2366,0.3545 0.2366,0.38615 0,0.0316 -0.44738,0.0575 -0.99421,0.0575 -1.0625,0 -1.59312,0.072 -1.59312,0.21608 0,0.0502 0.60742,0.0599 1.39009,0.0222 l 1.39008,-0.067 0.49513,0.28549 c 0.80667,0.46512 1.19484,0.55829 2.2016,0.52848 0.85224,-0.0252 0.98058,-0.0571 1.62907,-0.40534 z m 4.45764,0.10517 c 0.0416,-0.0698 0.0918,-0.61193 0.11165,-1.20475 0.0408,-1.22177 -0.0414,-1.50443 -0.44289,-1.52261 -0.16437,-0.008 -0.19798,-0.029 -0.0912,-0.0585 0.22408,-0.0619 0.11535,-0.23347 -0.15058,-0.23756 -0.19632,-0.003 -0.19891,-0.0121 -0.04,-0.13982 0.16082,-0.12927 0.15954,-0.13947 -0.024,-0.1903 -0.10666,-0.0295 -0.28114,-0.0295 -0.38778,0 -0.17708,0.0491 -0.18006,0.0644 -0.0345,0.17721 0.14726,0.11407 0.14744,0.12836 0.002,0.18739 -0.25738,0.10461 -0.17911,0.25755 0.15425,0.30138 0.23938,0.0315 0.20613,0.0447 -0.14374,0.0572 l -0.45519,0.0163 v 1.37048 1.37048 h 0.71306 c 0.46621,0 0.73924,-0.0439 0.7887,-0.1269 z m -11.68649,-0.1479 c 0.0345,-0.0954 -0.0138,-0.7384 -0.10741,-1.42911 -0.0935,-0.6907 -0.15553,-1.26586 -0.13764,-1.27815 0.0179,-0.0123 0.15108,-0.0763 0.29602,-0.14223 0.29917,-0.13612 0.30985,-0.23273 0.12025,-1.08866 l -0.13491,-0.60911 0.0193,0.50759 c 0.015,0.39259 -0.0132,0.50758 -0.12443,0.50758 -0.0924,0 -0.15855,-0.12671 -0.18527,-0.35531 l -0.0416,-0.35531 -0.0542,0.38405 c -0.0611,0.43171 -0.21421,0.50869 -0.30826,0.15491 -0.0613,-0.23058 -0.0625,-0.23077 -0.0718,-0.012 -0.01,0.235 -0.17054,0.40225 -0.27735,0.2891 -0.0348,-0.0369 -0.0916,-0.30418 -0.12601,-0.59388 -0.0507,-0.42605 -0.0602,-0.36178 -0.05,0.33616 l 0.0126,0.86289 0.30328,0.0312 c 0.1668,0.0172 0.32668,0.0958 0.35528,0.17472 0.0286,0.079 0.0789,0.68164 0.11175,1.3393 0.0329,0.65768 0.0765,1.25287 0.0969,1.32267 0.0536,0.183 0.23028,0.156 0.30359,-0.0464 z m 10.01456,-1.41673 c 0.016,-0.62324 -0.004,-1.11163 -0.0442,-1.08531 -0.0403,0.0263 -0.0666,0.65046 -0.0587,1.38697 0.0162,1.51202 0.06,1.38387 0.10296,-0.30166 z m -0.1945,0.1434 c 0.0161,-0.73981 0.0293,-1.35085 0.0293,-1.35787 0,-0.0754 -0.4149,-0.11387 -0.5144,-0.0477 -0.10514,0.0699 -0.0882,0.13262 0.0854,0.31661 0.20372,0.21581 0.21305,0.28554 0.15769,1.17838 -0.0323,0.52196 -0.0339,1.018 -0.003,1.10232 0.14476,0.39962 0.21846,0.0415 0.24532,-1.19178 z m 2.19844,-0.006 c -0.0161,-0.69497 -0.073,-1.28296 -0.12972,-1.33993 -0.0701,-0.0704 -0.0828,-0.0238 -0.0414,0.15228 0.0328,0.13958 0.0602,0.77533 0.061,1.41278 7.2e-4,0.63743 0.0322,1.1262 0.0701,1.08613 0.0379,-0.0401 0.0559,-0.63014 0.0401,-1.31126 z m 0.70028,0.74334 c 0.24241,-0.0977 0.2456,-0.11209 0.18459,-0.83751 -0.0342,-0.406 -0.0718,-0.75102 -0.0836,-0.76672 -0.0119,-0.0157 -0.15657,0.0529 -0.32148,0.15227 -0.33432,0.20161 -0.40273,0.38495 -0.11378,0.3049 0.15852,-0.0439 0.19685,0.0155 0.24943,0.38702 0.0698,0.49279 0.0189,0.63131 -0.27883,0.75855 -0.30005,0.12826 0.0456,0.12967 0.36378,0.001 z m -9.84286,-1.99232 c -0.0318,-0.0337 -0.1145,-0.0373 -0.18368,-0.008 -0.0765,0.0324 -0.0537,0.0565 0.0579,0.0613 0.10101,0.004 0.15762,-0.0196 0.12577,-0.0533 z m 2.3258,-0.13475 c 0,-0.10615 0.11587,-0.28248 0.25751,-0.39178 l 0.25752,-0.19873 -0.27163,-0.26668 c -0.58941,-0.57867 -1.62902,-0.55875 -1.91973,0.0368 -0.0794,0.16268 -0.14438,0.39581 -0.14438,0.51805 0,0.12224 -0.0754,0.28114 -0.1677,0.3531 -0.14054,0.10968 0.007,0.13177 0.91036,0.13659 0.99751,0.005 1.07805,-0.009 1.07805,-0.18733 z m 1.24575,0.0772 c 0,-0.17794 -0.29635,-0.4902 -0.46524,-0.4902 -0.26929,0 0.0184,-0.17978 0.55341,-0.34575 0.28566,-0.0887 0.53886,-0.14051 0.56266,-0.11531 0.0238,0.0252 -0.15676,0.0992 -0.40124,0.16442 -0.24447,0.0652 -0.46409,0.15215 -0.48804,0.1932 -0.065,0.11145 0.60199,0.46365 0.68985,0.36426 0.0417,-0.047 0.0217,-0.10593 -0.0442,-0.1309 -0.0659,-0.0249 -0.11978,-0.0872 -0.11978,-0.13837 0,-0.13659 0.32576,-0.11343 0.46396,0.0329 0.082,0.0869 0.14009,0.0925 0.18687,0.018 0.0373,-0.0595 0.13646,-0.13477 0.22029,-0.1674 0.10763,-0.042 0.13997,-0.14898 0.11007,-0.36483 -0.0397,-0.28655 -0.0685,-0.30549 -0.46385,-0.30549 -0.23183,0 -0.42151,0.0418 -0.42151,0.093 0,0.18496 -0.2761,0.088 -0.33803,-0.11877 l -0.0635,-0.21184 -0.18745,0.21315 c -0.10307,0.11723 -0.15935,0.26132 -0.125,0.32019 0.0344,0.0589 -0.0281,0.13212 -0.13886,0.1628 -0.11071,0.0307 -0.20668,0.11896 -0.21327,0.1962 -0.007,0.0772 -0.0228,0.18611 -0.0359,0.24195 -0.0131,0.0558 -0.0299,0.13578 -0.0374,0.17765 -0.008,0.0418 -0.0559,0.008 -0.10785,-0.0761 -0.0839,-0.13535 -0.10481,-0.13535 -0.18872,0 -0.2031,0.32775 -0.11097,0.40607 0.47767,0.40607 0.37547,0 0.57496,-0.0413 0.57496,-0.11891 z m 1.14993,0.0377 c 0,-0.12517 -0.21587,-0.32486 -0.35119,-0.32486 -0.0666,0 -0.16736,0.0914 -0.22377,0.20303 -0.0935,0.18524 -0.0729,0.20304 0.23619,0.20304 0.18633,0 0.33877,-0.0366 0.33877,-0.0812 z m 0.45319,0.0198 c -0.0318,-0.0337 -0.1145,-0.0373 -0.18368,-0.008 -0.0765,0.0324 -0.0537,0.0565 0.0579,0.0613 0.10101,0.004 0.15762,-0.0196 0.12578,-0.0533 z m 2.32581,-0.34474 c 0,-0.0558 -0.0406,-0.10153 -0.0902,-0.10153 -0.0496,0 -0.11682,0.0457 -0.1494,0.10153 -0.0325,0.0558 0.008,0.10153 0.0902,0.10153 0.0821,0 0.14941,-0.0457 0.14941,-0.10153 z m 0.60604,-0.95453 c 0.0284,-0.0783 -0.008,-0.2268 -0.0788,-0.32993 -0.12268,-0.17656 -0.13412,-0.17713 -0.19532,-0.01 -0.0745,0.20358 0.003,0.4822 0.13389,0.4822 0.0487,0 0.11179,-0.0641 0.14017,-0.14241 z m -11.75143,-0.84546 c -0.0243,-0.0988 -0.0458,-0.0425 -0.0477,0.12497 -0.002,0.1675 0.0179,0.24832 0.0442,0.17958 0.0263,-0.0687 0.0279,-0.20577 0.003,-0.30455 z m 10.32501,-0.0526 c -0.36812,-1.26125 -1.67096,-2.40971 -3.08752,-2.72165 -2.00161,-0.44076 -4.11475,0.73406 -4.80411,2.67089 l -0.0994,0.27917 h 4.02883 4.02883 z m -7.55308,0.0449 c -0.0976,-0.16731 0.38852,-1.00165 0.89893,-1.54285 1.52909,-1.62134 4.02451,-1.04638 4.73498,1.09096 l 0.14314,0.4306 -0.40274,-0.41384 c -0.85114,-0.8746 -1.8637,-1.17517 -2.89205,-0.85847 -0.45012,0.13862 -0.66855,0.28866 -1.12645,0.77374 -0.49734,0.52688 -0.61409,0.60178 -0.93803,0.60178 -0.20349,0 -0.39149,-0.0369 -0.41778,-0.0819 z m -2.38956,-0.14015 c -0.0306,-0.0809 -0.0533,-0.0569 -0.0579,0.0613 -0.004,0.10704 0.0184,0.16698 0.0503,0.13325 0.0318,-0.0337 0.0353,-0.1213 0.008,-0.19458 z m 6.43161,-3.04677 c 0.31204,-0.33056 -4.5e-4,-0.99487 -0.46797,-0.99487 -0.35639,0 -0.56695,0.2456 -0.56695,0.66128 0,0.32884 0.0159,0.34374 0.40726,0.38108 0.22399,0.0214 0.43098,0.0468 0.45997,0.0566 0.029,0.01 0.10448,-0.0371 0.16769,-0.10406 z"
       id="path1" /></g><ellipse
     style="opacity:0.554745;fill:#8d5fd3;stroke-width:0.264583"
     id="path3"
     cx="0"
     cy="178.27306"
     rx="10.95941"
     ry="5.1143913" /></svg>
