<?xml version="1.0" encoding="UTF-8" standalone="no"?>
<!-- Created with Inkscape (http://www.inkscape.org/) -->

<svg
   width="2.4000001in"
   height="2in"
   viewBox="0 0 60.960001 50.799997"
   version="1.1"
   id="svg1"
   xml:space="preserve"
   inkscape:version="1.3.2 (091e20e, 2023-11-25, custom)"
   sodipodi:docname="l2.svg"
   xmlns:inkscape="http://www.inkscape.org/namespaces/inkscape"
   xmlns:sodipodi="http://sodipodi.sourceforge.net/DTD/sodipodi-0.dtd"
   xmlns="http://www.w3.org/2000/svg"
   xmlns:svg="http://www.w3.org/2000/svg"><sodipodi:namedview
     id="namedview1"
     pagecolor="#ffffff"
     bordercolor="#000000"
     borderopacity="0.25"
     inkscape:showpageshadow="2"
     inkscape:pageopacity="0.0"
     inkscape:pagecheckerboard="0"
     inkscape:deskcolor="#d1d1d1"
     inkscape:document-units="mm"
     inkscape:zoom="0.72426347"
     inkscape:cx="396.95499"
     inkscape:cy="561.25984"
     inkscape:window-width="1920"
     inkscape:window-height="1009"
     inkscape:window-x="1912"
     inkscape:window-y="96"
     inkscape:window-maximized="1"
     inkscape:current-layer="layer1" /><defs
     id="defs1" /><g
     inkscape:label="Layer 1"
     inkscape:groupmode="layer"
     id="layer1"><path
       style="fill:#000080;stroke-width:0.489974"
       d="m 11.222571,44.127364 c -0.522338,-0.199461 -0.859345,-0.570424 -0.986925,-1.086361 -0.03529,-0.142727 -0.0037,-0.173946 0.25788,-0.254366 0.163961,-0.05044 0.305949,-0.06337 0.315529,-0.02876 0.06575,0.237435 0.293319,0.572911 0.460088,0.678237 0.394531,0.249155 1.166291,0.106268 1.273785,-0.235835 0.02143,-0.06819 0.03896,-0.243428 0.03896,-0.389426 0,-0.383969 -0.210633,-0.579735 -0.891697,-0.828761 -0.320106,-0.117052 -0.685169,-0.276827 -0.81125,-0.35506 -0.903712,-0.560754 -0.643728,-2.085145 0.404353,-2.370884 0.67679,-0.184519 1.449212,0.132868 1.739785,0.714863 0.175715,0.351944 0.157696,0.486321 -0.07276,0.542611 -0.315947,0.07717 -0.36011,0.05993 -0.461945,-0.180597 -0.130997,-0.309369 -0.396498,-0.460811 -0.807866,-0.460811 -0.447355,0 -0.729103,0.255603 -0.729103,0.661442 0,0.3722 0.211015,0.580653 0.797712,0.788053 1.12744,0.398553 1.405009,0.662699 1.447336,1.377321 0.03154,0.532578 -0.11735,0.937143 -0.445448,1.210323 -0.375362,0.312541 -1.034639,0.406578 -1.528426,0.218017 z m 15.356611,0.02266 c -0.814539,-0.160341 -1.339053,-0.839564 -1.521129,-1.969805 -0.162467,-1.008521 0.143833,-2.000562 0.777339,-2.517608 0.407943,-0.332957 0.728413,-0.426285 1.326801,-0.386414 0.771781,0.05142 1.284451,0.453556 1.603585,1.257812 0.21767,0.54856 0.246098,1.586871 0.05996,2.190132 -0.320558,1.038908 -1.241867,1.623662 -2.246559,1.425883 z m 1.201924,-0.881301 c 0.164256,-0.138971 0.323927,-0.373124 0.436372,-0.639924 0.161588,-0.383403 0.175109,-0.476941 0.15229,-1.053788 -0.02175,-0.54949 -0.04935,-0.675275 -0.209264,-0.953136 -0.267183,-0.464266 -0.695549,-0.712898 -1.216211,-0.705914 -0.449053,0.0062 -0.686985,0.122256 -0.954605,0.466335 -0.53454,0.68726 -0.523307,2.061945 0.02194,2.682599 0.468573,0.533385 1.27078,0.625796 1.769496,0.203828 z m 10.695431,0.889351 c -0.608922,-0.121345 -1.093891,-0.58122 -1.369451,-1.298571 -0.140484,-0.365733 -0.161926,-0.52334 -0.161569,-1.187561 4.7e-4,-0.890711 0.109034,-1.264919 0.508451,-1.752711 0.40559,-0.495324 0.703222,-0.621448 1.466529,-0.621448 0.556458,0 0.697994,0.02586 0.913591,0.166777 0.242967,0.158821 0.716898,0.722266 0.716898,0.8523 0,0.03375 -0.102118,0.132585 -0.226932,0.219699 l -0.226931,0.158383 -0.216034,-0.292027 c -0.607316,-0.820958 -1.730477,-0.677454 -2.189828,0.279795 -0.242123,0.504563 -0.282912,1.31055 -0.09287,1.83522 0.178642,0.493224 0.288597,0.633882 0.663646,0.849018 0.2202,0.126314 0.426587,0.180085 0.693216,0.180609 0.606606,0.0012 0.998423,-0.371954 1.185359,-1.128899 0.04218,-0.170731 0.03677,-0.172314 -0.588778,-0.172314 h -0.631337 v -0.306345 -0.306345 h 0.909315 0.909308 v 1.26367 1.263675 h -0.21949 -0.219483 v -0.42668 -0.426673 L 40.08914,43.58087 c -0.367898,0.476392 -0.993965,0.700481 -1.612603,0.577204 z m 14.862506,0.0018 c -0.612005,-0.126438 -1.094378,-0.584582 -1.36945,-1.300671 -0.140484,-0.365733 -0.161924,-0.52334 -0.161569,-1.18756 4.71e-4,-0.890718 0.109036,-1.26492 0.50845,-1.752712 0.348907,-0.4261 0.712616,-0.603827 1.318092,-0.644093 0.621914,-0.04133 1.01885,0.09871 1.395481,0.492423 0.222934,0.233051 0.44616,0.608669 0.44616,0.750769 0,0.0226 -0.103601,0.09392 -0.230213,0.158536 l -0.230208,0.117471 -0.18348,-0.271838 C 54.405748,39.890214 53.5903,39.710866 53.016464,40.122815 52.594066,40.426056 52.39209,40.87681 52.35402,41.6012 c -0.02641,0.501963 -0.01059,0.611957 0.142933,0.995144 0.296268,0.739522 0.912578,1.073379 1.613068,0.873807 0.265751,-0.07571 0.389658,-0.169075 0.62509,-0.470992 l 0.293638,-0.376573 0.223727,0.114171 c 0.123051,0.06279 0.223731,0.168383 0.223731,0.234657 0,0.06627 -0.112951,0.270145 -0.251002,0.453057 -0.433191,0.573928 -1.207137,0.875685 -1.886162,0.735403 z M 2.4854133,42.054684 V 39.948569 H 1.9837254 1.4820376 v -0.344634 -0.344633 h 1.2855753 1.2855759 v 0.344633 0.344634 H 3.5515004 3.0498126 v 2.106115 2.106121 H 2.7676129 2.4854133 Z m 2.9658891,1.433409 C 5.5618613,43.118104 5.892188,42.015478 6.1853622,41.037812 L 6.7184055,39.260238 7.072859,39.25977 c 0.3301018,-4.38e-4 0.3586806,0.01398 0.4159826,0.21014 0.033837,0.115839 0.3611314,1.20369 0.7273117,2.417455 0.3661796,1.213766 0.6657819,2.221825 0.6657819,2.24014 0,0.01829 -0.1373204,0.03332 -0.3051549,0.03332 H 8.2716247 L 8.1000857,43.586428 7.9285453,43.012032 H 7.0611804 c -0.8447723,0 -0.8685017,0.0043 -0.9109433,0.17232 -0.023966,0.09477 -0.098446,0.35325 -0.1655094,0.57439 l -0.121932,0.402082 H 5.556541 5.2502856 Z M 7.7514625,42.380177 C 7.7505105,42.369646 7.5978277,41.844069 7.4121007,41.212244 7.105936,40.170681 7.0684743,40.082193 7.0107689,40.264226 6.9757675,40.374645 6.8576685,40.77098 6.7483337,41.144961 6.6390001,41.51894 6.5111853,41.954168 6.4643019,42.112119 l -0.085244,0.287205 h 0.687039 c 0.3778721,0 0.6862855,-0.0086 0.6853651,-0.01915 z m 7.8405495,-0.325493 v -2.106115 h -0.501689 -0.501688 v -0.344634 -0.344633 h 1.285576 1.285575 v 0.344633 0.344634 H 16.658099 16.15641 v 2.106115 2.106121 h -0.282199 -0.282199 z m 3.260971,-0.34464 v -2.450742 h 1.066087 1.066087 v 0.344633 0.344634 H 20.20127 19.417382 v 0.727568 0.727568 h 0.689821 0.689822 v 0.306339 0.306345 h -0.689822 -0.689821 v 0.727575 0.727562 h 0.783888 0.783887 v 0.34464 0.344639 H 19.91907 18.852983 Z m 11.9778,0 v -2.450742 h 1.101049 1.101046 l -0.01927,0.325485 -0.01926,0.325487 -0.799561,0.02143 -0.799566,0.02143 v 0.725278 0.725277 h 0.689817 0.689823 v 0.306339 0.306345 h -0.689823 -0.689817 v 1.072208 1.072208 h -0.282199 -0.282203 z m 11.85238,-0.0043 v -2.463876 l 0.862274,0.02919 c 0.717822,0.02433 0.904304,0.05568 1.113118,0.187421 0.338829,0.213725 0.542383,0.665803 0.546415,1.213525 0.0035,0.540221 -0.151108,0.870154 -0.516491,1.098826 -0.154424,0.09665 -0.273083,0.210947 -0.263698,0.254009 0.0094,0.04305 0.242205,0.520864 0.51737,1.0618 0.27516,0.540929 0.500293,1.003889 0.500293,1.028808 0,0.02494 -0.13829,0.04533 -0.307305,0.04533 h -0.3073 L 44.4033,43.26089 c -0.627359,-1.329789 -0.621396,-1.321111 -0.907447,-1.321111 h -0.244846 l -0.0174,1.091355 -0.0174,1.091349 -0.266525,0.02359 -0.266519,0.02359 z M 44.42328,41.28584 c 0.07564,-0.06471 0.169924,-0.249667 0.209506,-0.411031 0.151509,-0.617562 -0.217902,-1.002714 -0.961924,-1.002923 l -0.423299,-1.17e-4 v 0.765857 0.765863 h 0.519086 c 0.365349,0 0.559826,-0.03486 0.656631,-0.117649 z m 2.336098,2.841904 c 0,-0.102579 1.398756,-4.687852 1.456009,-4.772929 0.03543,-0.05265 0.199032,-0.09573 0.363574,-0.09573 0.226874,0 0.309471,0.0324 0.341809,0.134025 0.147715,0.464309 1.413133,4.700263 1.413133,4.73044 0,0.02039 -0.124128,0.03702 -0.275835,0.03702 h -0.27584 l -0.172146,-0.576428 -0.172152,-0.576428 -0.883109,0.02112 -0.883115,0.02118 -0.159555,0.536101 -0.159562,0.536101 -0.296605,0.02334 c -0.163134,0.01281 -0.296606,0.0043 -0.296606,-0.01786 z m 2.217149,-2.705108 c -0.157275,-0.537062 -0.31565,-1.076864 -0.351938,-1.199558 -0.06228,-0.210559 -0.08258,-0.165385 -0.361405,0.804152 -0.162488,0.564979 -0.31523,1.104782 -0.33944,1.199557 -0.04381,0.171532 -0.0409,0.172321 0.647357,0.172321 h 0.691378 z m 8.284035,2.641393 c -0.0167,-0.05309 -0.02287,-1.147307 -0.01373,-2.431601 l 0.01664,-2.335083 1.08177,-0.02094 1.081763,-0.02094 v 0.346444 0.346445 H 58.643116 57.85923 v 0.727568 0.727562 h 0.689821 0.68982 v 0.306345 0.306345 h -0.68982 -0.689821 v 0.727568 0.727568 h 0.783886 0.783889 v 0.344641 0.344633 H 58.35895 c -0.801266,0 -1.075632,-0.02414 -1.098387,-0.09652 z M 30.674006,31.136911 c 0.103471,-0.03578 0.428005,-0.09589 0.721177,-0.133637 0.456104,-0.05876 0.392745,-0.06416 -0.438979,-0.03769 -0.53461,0.017 -1.15545,-5.12e-4 -1.37964,-0.03905 -0.344735,-0.05918 -0.233469,-0.0712 0.721178,-0.07778 1.24025,-0.0086 2.101329,-0.134273 3.041483,-0.444078 2.184255,-0.719784 4.082476,-2.074183 5.582453,-3.983134 0.561915,-0.715128 1.216231,-1.705629 1.061656,-1.607127 -0.04992,0.03184 -0.03601,0.0037 0.03095,-0.0627 0.06696,-0.06632 0.127706,-0.16365 0.134996,-0.216294 0.0072,-0.05265 0.175922,-0.423119 0.374734,-0.823286 0.198818,-0.400161 0.473325,-1.037738 0.610015,-1.416842 0.136683,-0.379097 0.274258,-0.729009 0.305717,-0.777583 0.07214,-0.111392 0.137999,-0.379098 0.367403,-1.493487 0.299457,-1.454723 0.381687,-2.221011 0.405548,-3.779213 0.01478,-0.966267 0.0053,-1.300751 -0.02903,-0.995613 -0.02822,0.252728 -0.05435,0.759883 -0.05813,1.127008 -0.0153,1.503864 -0.3271,3.325122 -0.880334,5.142746 -0.468874,1.540459 -0.785379,2.250992 -1.576093,3.538237 -0.772381,1.257388 -1.725768,2.340299 -2.87738,3.268265 -0.621497,0.500799 -1.805525,1.252725 -1.862687,1.182917 -0.01466,-0.01786 0.200154,-0.176619 0.477335,-0.352727 0.478387,-0.303955 0.635314,-0.438769 0.39422,-0.33866 -0.06036,0.02501 0.140935,-0.149865 0.447324,-0.388711 1.216676,-0.948486 2.297352,-2.130651 2.872836,-3.14264 l 0.263406,-0.463201 -0.611906,0.710078 c -0.336548,0.39054 -0.636466,0.691534 -0.666492,0.668876 -0.03002,-0.02261 -0.07104,-0.0087 -0.09114,0.03104 -0.02011,0.03972 -0.156101,0.183941 -0.302209,0.320467 -0.203443,0.1901 -0.163964,0.12055 0.168599,-0.297003 0.238838,-0.299878 0.452958,-0.531112 0.475824,-0.513855 0.102536,0.07739 0.964512,-1.23024 0.897823,-1.362023 -0.02199,-0.04348 -0.01245,-0.05826 0.02118,-0.03289 0.09725,0.0734 1.122376,-1.944991 1.039349,-2.046395 -0.01979,-0.02414 -0.0035,-0.04397 0.03718,-0.04397 0.04021,0 0.06745,-0.02586 0.06049,-0.05746 -0.007,-0.03159 0.04608,-0.195292 0.117902,-0.363786 0.310209,-0.727735 0.62153,-2.148777 0.855682,-3.905874 0.08093,-0.607301 0.09402,-3.3885 0.0178,-3.787941 -0.01978,-0.103621 -0.05277,-0.327632 -0.07332,-0.49781 C 41.004243,10.940009 39.69791,7.9239085 38.042459,6.0516133 36.265315,4.0416821 34.4007,2.9033883 32.113921,2.432405 30.611608,2.1229903 29.397822,2.1737612 27.851952,2.6106772 c -1.803934,0.5098539 -3.701634,1.7585934 -5.07959,3.3425079 -1.094578,1.2581835 -1.668108,2.1753594 -2.341958,3.7452089 -0.820524,1.911551 -1.306849,4.289224 -1.334484,6.524388 -0.0067,0.544556 -0.01429,0.586152 -0.0531,0.292451 -0.02488,-0.18832 -0.02197,-0.80656 0.0064,-1.373867 0.02843,-0.567307 0.04171,-1.043653 0.02951,-1.058559 -0.0122,-0.01492 -0.0546,0.379324 -0.09422,0.876059 -0.127976,1.604645 -0.176751,1.801581 -0.185756,0.749986 -0.0097,-1.137527 0.121451,-2.266542 0.409366,-3.522955 0.06201,-0.270584 -0.09371,-0.02121 -0.192446,0.308193 -0.198864,0.663461 -0.08502,0.05493 0.154611,-0.826459 1.309134,-4.8150848 4.310498,-8.397051 8.134844,-9.7085005 1.209939,-0.4149141 1.683722,-0.4894908 3.117908,-0.4907786 1.381885,-0.00123 1.881884,0.064185 2.91606,0.3815705 2.283707,0.7008659 4.201867,2.067209 5.853556,4.1696053 2.26707,2.8856933 3.326724,6.1670233 3.32688,10.3020083 8.2e-5,1.975452 -0.212612,3.54195 -0.717479,5.284426 -1.43636,4.957407 -5.209254,8.698283 -9.575667,9.494409 -0.691341,0.126057 -1.893502,0.154306 -1.552508,0.03653 z m 1.553291,-0.27594 c -0.04247,-0.021 -0.127117,-0.02229 -0.188136,-0.0031 -0.06101,0.0194 -0.02627,0.03658 0.0772,0.03812 0.103471,0.0012 0.153394,-0.01429 0.110936,-0.03529 z m 0.375072,-0.07708 c -0.04313,-0.02125 -0.113663,-0.02125 -0.156777,0 -0.04313,0.02125 -0.0078,0.03861 0.07839,0.03861 0.08623,0 0.121503,-0.01737 0.07839,-0.03861 z m 0.343602,-0.07213 c -0.02081,-0.02544 -0.07493,-0.02814 -0.120197,-0.0062 -0.05003,0.02445 -0.03519,0.04262 0.03787,0.04631 0.06611,0.0037 0.103147,-0.01478 0.08231,-0.04022 z m 4.639785,-2.537606 c 0.84662,-0.771966 1.726017,-1.820721 2.26591,-2.702306 0.19546,-0.319174 0.191434,-0.316402 -0.05818,0.04003 -0.527447,0.753177 -1.728352,2.159013 -2.221267,2.600319 -0.27593,0.247043 -0.529907,0.483211 -0.564401,0.524819 -0.123621,0.149126 0.126051,-0.05087 0.577942,-0.462881 z m 0.675573,-2.212179 c 0.05928,-0.110488 0.07679,-0.177494 0.03893,-0.148905 -0.0724,0.05463 -0.218403,0.349801 -0.173038,0.349801 0.01447,0 0.07485,-0.0904 0.134131,-0.200896 z m 1.921392,-1.005325 c 0.078,-0.121474 0.07578,-0.124184 -0.02368,-0.02895 -0.06036,0.05783 -0.109751,0.118124 -0.109751,0.134025 0,0.06303 0.05149,0.02248 0.133426,-0.105104 z m 1.9795,-10.720575 c -0.01594,-0.07452 -0.02996,-0.03209 -0.03124,0.09427 -0.0012,0.126363 0.01175,0.187334 0.02892,0.135483 0.01722,-0.05186 0.01821,-0.155244 0.0023,-0.229758 z M 19.147285,13.700424 c -0.0159,-0.07451 -0.02996,-0.03209 -0.03123,0.09427 -0.0012,0.126371 0.01173,0.187339 0.02891,0.135487 0.01718,-0.05185 0.01823,-0.155242 0.0023,-0.22976 z m 0.06078,-0.422679 c -0.0174,-0.05265 -0.03163,-0.0096 -0.03163,0.09573 0,0.105307 0.01424,0.148384 0.03163,0.09574 0.0174,-0.05265 0.0174,-0.138814 0,-0.191467 z m 0.06402,-0.301555 c -0.02002,-0.0611 -0.03488,-0.04293 -0.03789,0.04629 -0.0027,0.08073 0.0121,0.125967 0.03294,0.100518 0.02083,-0.02544 0.02307,-0.0915 0.005,-0.146789 z m 0.06271,-0.306345 c -0.02002,-0.0611 -0.03488,-0.04297 -0.03789,0.04624 -0.0027,0.08073 0.0121,0.125967 0.03294,0.100518 0.02083,-0.02544 0.02307,-0.0915 0.005,-0.146789 z m 0.06271,-0.306344 c -0.02002,-0.0611 -0.03488,-0.04293 -0.03789,0.0463 -0.0027,0.08073 0.0121,0.125966 0.03294,0.100519 0.02083,-0.02545 0.02307,-0.09151 0.005,-0.146789 z m 21.2789,-3.202252 c -0.03695,-0.08424 -0.08123,-0.153167 -0.09848,-0.153167 -0.01722,0 -0.0012,0.06892 0.03578,0.153167 0.03695,0.08425 0.08123,0.153172 0.09848,0.153172 0.01722,0 0.0012,-0.06892 -0.03573,-0.153172 z M 38.418813,5.5352927 c 0,-0.014534 -0.06349,-0.092076 -0.141099,-0.1723187 l -0.141103,-0.1458948 0.119464,0.1723181 c 0.112264,0.161937 0.162738,0.2071836 0.162738,0.1458954 z m -0.501689,-0.538594 c 0,-0.015902 -0.04938,-0.076214 -0.109743,-0.1340252 -0.09947,-0.095263 -0.101682,-0.092554 -0.02368,0.028915 0.08192,0.1275728 0.133418,0.1681425 0.133418,0.1051096 z M 28.541833,30.75793 c -0.08069,-0.04274 -0.01358,-0.05057 0.188131,-0.02211 0.172455,0.02433 0.325314,0.05666 0.339685,0.07176 0.0544,0.05727 -0.408004,0.01374 -0.527816,-0.04964 z m 1.802942,-0.05524 c 0.129339,-0.0165 0.34099,-0.0165 0.47033,0 0.129344,0.0165 0.02354,0.03005 -0.235166,0.03005 -0.258683,0 -0.364509,-0.01355 -0.235164,-0.03005 z m 1.160885,-0.07496 c 0.078,-0.01829 0.190885,-0.01761 0.250842,0.0012 0.05996,0.01916 -0.0038,0.03412 -0.141832,0.03332 -0.137965,-0.0012 -0.187019,-0.01656 -0.10901,-0.03486 z m -4.484571,-0.230681 c -0.284548,-0.109901 -0.517364,-0.226436 -0.517364,-0.258972 0,-0.05629 1.050546,0.346136 1.117678,0.42812 0.05818,0.07106 -0.07698,0.03295 -0.600314,-0.169148 z m 5.048234,0.15754 c 0.04313,-0.02125 0.113666,-0.02125 0.156781,0 0.04313,0.02125 0.0078,0.03861 -0.07839,0.03861 -0.08623,0 -0.121504,-0.01737 -0.07839,-0.03861 z m -4.541484,-0.453261 c -0.02283,-0.07263 -0.08474,-0.106126 -0.154808,-0.08375 -0.06423,0.02051 -0.116773,0.0062 -0.116773,-0.03215 0,-0.03818 -0.02988,-0.06942 -0.06641,-0.06942 -0.0365,0 -0.04855,0.04311 -0.02668,0.09574 0.02185,0.05266 -9.52e-4,0.03541 -0.05025,-0.03824 -0.103565,-0.154313 -0.19674,-0.180185 -0.137886,-0.03831 0.02185,0.05266 -9.52e-4,0.03541 -0.05025,-0.03831 -0.103566,-0.154299 -0.196739,-0.180178 -0.13789,-0.03825 0.02185,0.05265 -9.52e-4,0.0348 -0.05104,-0.0396 -0.0582,-0.08681 -0.131037,-0.116473 -0.203073,-0.08272 -0.08326,0.03905 -0.09901,0.0263 -0.06087,-0.04902 0.03862,-0.07628 0.01762,-0.09087 -0.08393,-0.05844 -0.07709,0.02463 -0.155565,0.0012 -0.182264,-0.05334 -0.04562,-0.09397 -0.281311,-0.272109 -0.360018,-0.272109 -0.02157,0 -0.02161,0.03474 -1.27e-4,0.07717 0.02288,0.04514 -0.02673,0.04059 -0.119756,-0.01121 -0.08734,-0.04859 -0.140954,-0.123649 -0.11913,-0.166771 0.02429,-0.04804 -0.0018,-0.05888 -0.06794,-0.02796 -0.05918,0.02771 -0.0922,0.01995 -0.07336,-0.01731 0.04407,-0.08706 -0.1435,-0.176649 -0.231219,-0.110437 -0.03824,0.02888 -0.04847,0.01422 -0.02396,-0.03418 0.04684,-0.09252 -0.170505,-0.270039 -0.234667,-0.191683 -0.0218,0.02661 -0.03961,0.0092 -0.03961,-0.03855 0,-0.04964 -0.04477,-0.06596 -0.10435,-0.038 -0.06813,0.03197 -0.08926,0.01903 -0.06085,-0.03708 0.02518,-0.0497 -0.02993,-0.134604 -0.130815,-0.201413 -0.09587,-0.0635 -0.160204,-0.116781 -0.142959,-0.118413 0.01724,-0.0012 0.440544,0.248367 0.940666,0.555556 0.500121,0.307189 1.172988,0.660075 1.495266,0.784209 0.352642,0.135824 0.609461,0.279328 0.644992,0.360407 0.03247,0.0741 0.04304,0.134721 0.02349,0.134721 -0.01954,0 -0.05265,-0.05444 -0.07357,-0.12105 z m -1.247294,-0.07463 c -0.116895,-0.114373 -0.116124,-0.115784 0.01936,-0.0356 0.0776,0.04595 0.141099,0.09953 0.141099,0.119103 0,0.05863 -0.03251,0.0417 -0.16047,-0.0835 z m 1.528355,0.06679 c 0.04529,-0.02211 0.09936,-0.0194 0.120193,0.0062 0.02086,0.02544 -0.01621,0.04354 -0.08231,0.04022 -0.07306,-0.0037 -0.08792,-0.0218 -0.03787,-0.04625 z m -4.32555,-1.951569 c -1.08021,-0.975585 -1.929915,-2.03045 -2.704209,-3.357129 -0.428705,-0.734552 -1.111768,-2.195429 -1.109265,-2.372405 8.79e-4,-0.06416 0.106786,0.124603 0.235286,0.419462 0.924139,2.120533 2.42062,4.236897 3.865353,5.466495 0.204041,0.173657 0.34053,0.315738 0.303308,0.315738 -0.03723,0 -0.302936,-0.212468 -0.590473,-0.472161 z m 0.700068,0.01269 c -0.08623,-0.08237 -0.128558,-0.149767 -0.09407,-0.149767 0.03449,0 0.133261,0.06739 0.219488,0.149767 0.08623,0.08237 0.128559,0.149766 0.09407,0.149766 -0.0345,0 -0.133262,-0.06739 -0.219489,-0.149766 z m -0.533044,-0.459518 c -0.02132,-0.04212 -0.01054,-0.07658 0.02395,-0.07658 0.0345,0 0.08015,0.03443 0.101469,0.07658 0.02132,0.04212 0.01054,0.07659 -0.02395,0.07659 -0.03449,0 -0.08015,-0.03449 -0.101469,-0.07659 z m -0.282199,-0.306345 c -0.05652,-0.04459 -0.06425,-0.0747 -0.01938,-0.07541 0.04108,-5.11e-4 0.09213,0.03332 0.113444,0.07541 0.04812,0.09509 0.02641,0.09509 -0.09407,0 z m 5.581277,-2.287285 c 0,-0.03646 0.198266,-0.08362 0.440597,-0.10479 0.502403,-0.04391 0.653496,-0.161727 0.75413,-0.588093 0.04318,-0.182931 0.05871,-2.654651 0.04651,-7.397218 L 30.172326,9.888859 29.231661,9.74876 C 28.591319,9.65339 27.800468,9.604688 26.754574,9.596236 c -1.400514,-0.01134 -1.584865,0.0025 -2.084117,0.157516 -0.899283,0.279021 -1.663535,0.844951 -2.029669,1.502981 -0.157576,0.283206 -0.275983,0.359891 -0.275983,0.178742 0,-0.167245 0.670828,-1.104933 1.052175,-1.470736 0.781927,-0.75006 1.907129,-1.2197252 3.138585,-1.310054 0.811575,-0.059529 2.319235,0.071658 3.695149,0.321536 0.560478,0.101791 1.488406,0.270492 2.062058,0.374894 2.290133,0.416791 3.684902,0.414711 4.719516,-0.007 0.61188,-0.249424 0.941051,-0.4934358 1.406144,-1.0423648 0.211641,-0.2497839 0.395772,-0.413934 0.40919,-0.3647779 0.04009,0.1467868 -0.323743,0.7013085 -0.718156,1.0946257 -0.468662,0.46736 -0.995069,0.775038 -1.766259,1.032357 -0.592988,0.197858 -0.656616,0.20328 -2.33416,0.198855 -1.146618,-0.0031 -1.950468,-0.04215 -2.398694,-0.116799 l -0.674144,-0.112298 v 7.140804 c 0,4.352778 0.0234,7.215937 0.05991,7.333248 0.09078,0.291601 0.335948,0.443628 0.786701,0.487816 0.224182,0.02199 0.407606,0.0697 0.407606,0.106059 0,0.03633 -0.733722,0.0661 -1.630487,0.0661 -0.896765,0 -1.630487,-0.02987 -1.630487,-0.06629 z M 18.862885,12.990576 c 0,-0.105306 0.01424,-0.148384 0.03163,-0.09574 0.0174,0.05265 0.0174,0.138812 0,0.191466 -0.0174,0.05265 -0.03163,0.0096 -0.03163,-0.09573 z"
       id="path5" /></g></svg>
